HIERARCHY
ROOT Hips
{
	OFFSET -0.001795 -0.223333 0.028219
	CHANNELS 6 Xposition Yposition Zposition Zrotation Yrotation Xrotation 
	JOINT LeftUpLeg
	{
		OFFSET 0.069520 -0.091406 -0.006815
		CHANNELS 3 Zrotation Yrotation Xrotation
		JOINT LeftLeg
		{
			OFFSET 0.034277 -0.375199 -0.004496
			CHANNELS 3 Zrotation Yrotation Xrotation
			JOINT LeftFoot
			{
				OFFSET -0.013596 -0.397961 -0.043693
				CHANNELS 3 Zrotation Yrotation Xrotation
				JOINT LeftToe
				{
					OFFSET 0.026358 -0.055791 0.119288
					CHANNELS 3 Zrotation Yrotation Xrotation
					End Site
					{
						OFFSET 0.000000 0.000000 0.000000
					}
				}
			}
		}
	}
	JOINT RightUpLeg
	{
		OFFSET -0.067670 -0.090522 -0.004320
		CHANNELS 3 Zrotation Yrotation Xrotation
		JOINT RightLeg
		{
			OFFSET -0.038290 -0.382569 -0.008850
			CHANNELS 3 Zrotation Yrotation Xrotation
			JOINT RightFoot
			{
				OFFSET 0.015774 -0.398415 -0.042312
				CHANNELS 3 Zrotation Yrotation Xrotation
				JOINT RightToe
				{
					OFFSET -0.025372 -0.048144 0.123348
					CHANNELS 3 Zrotation Yrotation Xrotation
					End Site
					{
						OFFSET 0.000000 0.000000 0.000000
					}
				}
			}
		}
	}
	JOINT Spine
	{
		OFFSET -0.002533 0.108963 -0.026696
		CHANNELS 3 Zrotation Yrotation Xrotation
		JOINT Spine1
		{
			OFFSET 0.005487 0.135180 0.001092
			CHANNELS 3 Zrotation Yrotation Xrotation
			JOINT Spine2
			{
				OFFSET 0.001457 0.052922 0.025425
				CHANNELS 3 Zrotation Yrotation Xrotation
				JOINT Neck
				{
					OFFSET -0.002778 0.213870 -0.042857
					CHANNELS 3 Zrotation Yrotation Xrotation
					JOINT Head
					{
						OFFSET 0.005152 0.064970 0.051349
						CHANNELS 3 Zrotation Yrotation Xrotation
						End Site
						{
							OFFSET 0.000000 0.000000 0.000000
						}
					}
				}
				JOINT LeftShoulder
				{
					OFFSET 0.078845 0.121749 -0.034090
					CHANNELS 3 Zrotation Yrotation Xrotation
					JOINT LeftArm
					{
						OFFSET 0.090977 0.030469 -0.008868
						CHANNELS 3 Zrotation Yrotation Xrotation
						JOINT LeftForeArm
						{
							OFFSET 0.259612 -0.012772 -0.027456
							CHANNELS 3 Zrotation Yrotation Xrotation
							JOINT LeftHand
							{
								OFFSET 0.249234 0.008986 -0.001171
								CHANNELS 3 Zrotation Yrotation Xrotation
								End Site
								{
									OFFSET 0.000000 0.000000 0.000000
								}
							}
						}
					}
				}
				JOINT RightShoulder
				{
					OFFSET -0.081759 0.118833 -0.038615
					CHANNELS 3 Zrotation Yrotation Xrotation
					JOINT RightArm
					{
						OFFSET -0.096012 0.032551 -0.009143
						CHANNELS 3 Zrotation Yrotation Xrotation
						JOINT RightForeArm
						{
							OFFSET -0.253742 -0.013329 -0.021401
							CHANNELS 3 Zrotation Yrotation Xrotation
							JOINT RightHand
							{
								OFFSET -0.255298 0.007772 -0.005559
								CHANNELS 3 Zrotation Yrotation Xrotation
								End Site
								{
									OFFSET 0.000000 0.000000 0.000000
								}
							}
						}
					}
				}
			}
		}
	}
}
MOTION
Frames: 15
Frame Time: 0.050000
0.000000 0.951535 0.000000 -1.342186 -2.248676 3.907488 6.959311 -0.092339 0.706631 -0.307147 0.249308 -6.721849 2.573428 9.507017 16.679287 0.000000 0.000000 0.000000 -4.603057 0.179338 -0.092922 3.041436 -0.357157 -4.424732 -18.319057 -33.321981 25.135557 0.000000 0.000000 0.000000 -2.294975 0.079926 -1.235360 4.139744 -0.637739 -20.529099 -0.254412 0.286954 29.155914 0.036981 1.401379 -26.526271 0.000000 0.000000 0.000000 -20.437887 1.046291 -1.378387 -57.531092 -10.209632 -4.583653 -13.561596 -23.290391 4.142249 0.000000 0.000000 0.000000 12.559689 5.317282 1.764181 63.315792 8.070774 -4.591266 10.397659 25.563542 3.376544 0.000000 0.000000 0.000000 
0.000150 0.950340 0.001200 -1.542717 -2.966603 4.514278 7.160114 -0.094701 0.731288 -0.415898 0.282544 -7.486638 2.999331 10.033010 16.662599 0.000000 0.000000 0.000000 -4.378886 0.220174 -0.689464 2.829867 -0.336141 -4.251682 -17.435081 -32.544896 23.772989 0.000000 0.000000 0.000000 -2.162133 0.128257 -3.000360 3.898993 -0.671686 -19.125361 -0.084529 0.526377 28.997791 -0.595864 1.735784 -26.416472 0.000000 0.000000 0.000000 -20.817997 2.324246 -2.111226 -57.061110 -10.631347 -4.339557 -14.571518 -22.926565 4.288287 0.000000 0.000000 0.000000 12.056165 5.543213 1.836098 64.447744 7.975312 -4.681453 9.448121 27.190269 3.410398 0.000000 0.000000 0.000000 
0.000202 0.950242 0.002247 -1.078476 -3.104462 4.680916 7.046876 -0.109615 0.193322 -1.153267 0.298708 -6.747296 3.074545 10.108737 16.575033 0.000000 0.000000 0.000000 -4.702226 0.253251 -0.999250 2.307160 -0.294750 -3.734720 -16.937307 -32.060172 23.097930 0.000000 0.000000 0.000000 -2.421259 0.138716 -3.388393 3.804475 -0.642361 -19.186194 -0.352379 0.555967 29.308469 -0.460769 1.615176 -25.731724 0.000000 0.000000 0.000000 -21.210761 2.189602 -2.025683 -56.706677 -11.066591 -4.183070 -13.139532 -21.703617 3.755226 0.000000 0.000000 0.000000 12.988931 5.784456 1.926883 63.590065 8.537476 -4.368043 8.661251 27.600872 3.279084 0.000000 0.000000 0.000000 
0.000161 0.950094 0.003353 -1.191892 -3.932077 4.985231 7.287285 -0.104604 0.190498 -1.511445 0.325529 -6.875144 3.501837 10.656523 16.714463 0.000000 0.000000 0.000000 -4.805167 0.295410 -1.475933 2.356052 -0.282780 -3.160652 -15.723988 -30.786869 21.675668 0.000000 0.000000 0.000000 -2.423425 0.167025 -4.295793 3.939810 -0.705340 -19.034938 -0.382257 0.639625 29.684489 -0.816696 1.714283 -24.682051 0.000000 0.000000 0.000000 -21.231552 2.830931 -2.278097 -56.665849 -11.067719 -4.211099 -13.484613 -20.848963 3.675592 0.000000 0.000000 0.000000 12.498063 6.096089 2.012749 63.581967 8.848335 -4.266294 9.259124 28.524383 3.538173 0.000000 0.000000 0.000000 
0.000101 0.950521 0.004302 -1.135399 -4.123119 4.840172 7.331125 -0.095697 0.315053 -1.736432 0.334204 -6.647336 3.564162 10.742222 16.802897 0.000000 0.000000 0.000000 -4.955046 0.302517 -1.506785 2.038063 -0.253627 -2.812070 -15.103675 -29.957323 21.807146 0.000000 0.000000 0.000000 -2.309726 0.165843 -4.230422 3.991136 -0.762177 -18.444467 -0.725443 0.496955 29.182499 -0.701308 1.570896 -23.794134 0.000000 0.000000 0.000000 -21.151980 2.731036 -2.161873 -56.282327 -10.959488 -4.204394 -13.395905 -20.862955 3.656307 0.000000 0.000000 0.000000 12.671410 5.836087 1.824623 63.173338 8.696279 -4.293655 10.405922 29.717354 3.977789 0.000000 0.000000 0.000000 
0.000058 0.950753 0.004871 -1.076706 -4.465314 4.983571 7.400008 -0.096209 0.223582 -2.037490 0.352497 -6.583540 3.717091 10.946160 16.950659 0.000000 0.000000 0.000000 -5.006193 0.320805 -1.714295 1.746115 -0.223997 -2.468938 -14.331221 -29.058717 21.063819 0.000000 0.000000 0.000000 -2.508157 0.179778 -4.751396 4.038610 -0.778894 -18.459516 -0.656757 0.346555 29.782602 -0.753096 1.533100 -23.634280 0.000000 0.000000 0.000000 -21.062183 2.916866 -2.143325 -56.164425 -11.124016 -4.195990 -13.702226 -20.747362 3.712044 0.000000 0.000000 0.000000 12.022697 5.854109 1.798896 63.230903 9.017844 -4.218301 10.835144 30.167365 4.146002 0.000000 0.000000 0.000000 
0.000056 0.950575 0.005015 -1.070934 -4.539638 5.075124 7.562435 -0.105119 -0.006069 -2.346494 0.366689 -6.311814 3.776907 11.011554 16.864621 0.000000 0.000000 0.000000 -5.115557 0.340474 -1.974560 1.852437 -0.225837 -2.225651 -14.283577 -29.004798 21.041019 0.000000 0.000000 0.000000 -2.499697 0.182670 -4.812023 4.104715 -0.817184 -18.175798 -0.823602 0.181962 29.692253 -0.552235 1.371814 -23.520780 0.000000 0.000000 0.000000 -20.701286 2.886253 -2.049869 -55.786183 -10.899236 -4.277544 -14.198942 -21.382167 3.937506 0.000000 0.000000 0.000000 11.836713 6.044186 1.855408 63.142119 9.064698 -4.194015 10.996212 30.799869 4.273432 0.000000 0.000000 0.000000 
0.000071 0.950357 0.005041 -1.064555 -4.694623 5.137507 7.442294 -0.112484 -0.348484 -2.176280 0.346578 -5.770031 3.918156 11.176997 16.704180 0.000000 0.000000 0.000000 -5.136538 0.362837 -2.331249 1.945774 -0.221625 -1.750590 -14.362427 -29.153662 20.812849 0.000000 0.000000 0.000000 -2.530789 0.182846 -4.776288 4.035955 -0.805549 -18.087608 -0.735202 0.290181 29.708445 -0.634169 1.419317 -23.320426 0.000000 0.000000 0.000000 -20.602995 2.385866 -1.757441 -55.180468 -11.292466 -4.088603 -14.809184 -22.044965 4.186119 0.000000 0.000000 0.000000 11.749523 6.218320 1.943221 63.034165 9.278025 -4.081511 11.151871 30.365175 4.240476 0.000000 0.000000 0.000000 
0.000133 0.950049 0.005119 -1.056351 -4.344561 5.080921 7.484275 -0.123055 -0.509795 -2.203213 0.341363 -5.494442 3.777904 10.977974 16.468654 0.000000 0.000000 0.000000 -5.120062 0.361138 -2.380363 1.964749 -0.220943 -1.580658 -14.754482 -29.608008 21.204727 0.000000 0.000000 0.000000 -2.603724 0.176147 -4.629895 4.137904 -0.834008 -17.999713 -0.756955 0.317584 29.619227 -0.651255 1.455256 -22.973001 0.000000 0.000000 0.000000 -20.049472 2.093626 -1.623846 -55.021479 -12.014061 -3.728663 -15.415890 -22.721350 4.441653 0.000000 0.000000 0.000000 11.615894 6.292668 2.021871 62.831903 9.509195 -3.923927 11.127490 29.567782 4.110378 0.000000 0.000000 0.000000 
0.000189 0.949969 0.005241 -0.917501 -4.020440 5.042276 7.394982 -0.132779 -0.679360 -2.258572 0.339299 -5.249421 3.622518 10.770093 16.353114 0.000000 0.000000 0.000000 -5.369903 0.378818 -2.655270 1.959018 -0.214478 -1.247183 -15.066797 -29.876069 22.089821 0.000000 0.000000 0.000000 -2.658662 0.175644 -4.717811 3.998972 -0.804820 -17.747024 -0.761588 0.475552 29.754688 -0.822008 1.611874 -22.765216 0.000000 0.000000 0.000000 -19.591017 1.502570 -1.347214 -54.555092 -13.416572 -3.085904 -15.961434 -24.098181 4.838674 0.000000 0.000000 0.000000 11.647557 6.648351 2.250058 62.469002 9.892597 -3.700348 10.557228 28.657693 3.836269 0.000000 0.000000 0.000000 
0.000293 0.950060 0.005265 -0.738813 -3.366445 4.954054 7.390319 -0.151258 -0.978802 -2.482682 0.345180 -4.815746 3.293389 10.336421 16.197085 0.000000 0.000000 0.000000 -5.574933 0.369161 -2.526481 1.973759 -0.213773 -1.035045 -15.220004 -30.019311 22.242503 0.000000 0.000000 0.000000 -2.880637 0.164059 -4.508544 4.019485 -0.793812 -17.807137 -0.795049 0.264517 29.873099 -0.984105 1.748160 -23.010435 0.000000 0.000000 0.000000 -19.112608 1.246761 -1.217483 -54.730610 -14.738481 -2.481717 -16.403779 -26.122670 5.402485 0.000000 0.000000 0.000000 11.512489 6.769964 2.344441 62.505978 9.939960 -3.672116 9.847329 27.506699 3.496621 0.000000 0.000000 0.000000 
0.000403 0.950206 0.005056 -0.598587 -2.646473 5.046761 7.392540 -0.177143 -1.403614 -2.634668 0.348692 -4.551179 2.935056 9.876010 16.111873 0.000000 0.000000 0.000000 -5.767597 0.370476 -2.601445 2.035748 -0.218973 -0.883218 -15.478814 -30.257187 22.658501 0.000000 0.000000 0.000000 -2.981533 0.162047 -4.622701 4.055533 -0.798499 -17.648194 -0.709673 0.244647 30.098621 -0.891561 1.765318 -23.272773 0.000000 0.000000 0.000000 -18.648028 0.709810 -0.986549 -54.845271 -16.603908 -1.630511 -17.282686 -28.430220 6.161670 0.000000 0.000000 0.000000 11.293836 7.060790 2.555491 62.325381 10.131500 -3.556109 9.464702 27.166532 3.373709 0.000000 0.000000 0.000000 
0.000531 0.950326 0.004598 -0.434150 -2.092936 5.128477 7.268294 -0.204024 -1.983901 -2.645001 0.338873 -3.957693 2.687003 9.548286 15.978885 0.000000 0.000000 0.000000 -5.857990 0.383585 -2.940756 2.044126 -0.214812 -0.545645 -16.224069 -31.057372 23.475323 0.000000 0.000000 0.000000 -3.226306 0.158128 -4.689045 4.122481 -0.823755 -17.392182 -0.525089 0.362758 30.102126 -1.058328 1.938667 -23.131339 0.000000 0.000000 0.000000 -18.189801 -0.027373 -0.672425 -55.088718 -18.282780 -0.816539 -17.647256 -30.970035 6.855419 0.000000 0.000000 0.000000 11.443508 7.280797 2.736118 62.178197 10.299414 -3.429245 8.685635 26.405204 3.103964 0.000000 0.000000 0.000000 
0.000604 0.950286 0.004119 -0.443383 -1.638145 5.237954 7.323469 -0.227169 -2.485897 -2.646539 0.331125 -3.502425 2.502990 9.299112 15.820912 0.000000 0.000000 0.000000 -5.784245 0.390188 -3.170682 2.010024 -0.206663 -0.238917 -16.497056 -31.349695 23.678672 0.000000 0.000000 0.000000 -3.406787 0.155138 -4.720345 4.427602 -0.925045 -17.088000 -0.436981 0.260756 30.050597 -1.080946 1.967303 -22.795405 0.000000 0.000000 0.000000 -18.241339 -0.553506 -0.435678 -55.460038 -19.565319 -0.177013 -18.224021 -32.527836 7.416164 0.000000 0.000000 0.000000 11.275362 7.689942 2.953541 62.094198 10.505584 -3.294686 7.996214 26.419877 2.955213 0.000000 0.000000 0.000000 
0.000570 0.950149 0.003889 -0.485173 -1.504733 5.393037 7.377418 -0.244382 -2.950710 -2.627781 0.323595 -3.053764 2.489030 9.266463 15.685484 0.000000 0.000000 0.000000 -5.717140 0.407085 -3.509541 1.951835 -0.193514 0.108266 -16.511126 -31.366827 23.672631 0.000000 0.000000 0.000000 -3.327255 0.159670 -4.901298 4.547059 -0.982920 -16.701563 -0.388544 0.387509 29.957202 -1.071168 1.997416 -22.831533 0.000000 0.000000 0.000000 -18.025582 -1.229614 -0.111000 -55.357045 -20.594867 0.327215 -18.987454 -33.622260 7.920147 0.000000 0.000000 0.000000 10.996284 7.989767 3.115686 62.225917 10.980395 -3.004190 7.530770 26.606120 2.882352 0.000000 0.000000 0.000000 
